<?xml version="1.0" encoding="UTF-8"?>
<svg version="1.1" xmlns="http://www.w3.org/2000/svg" width="500" height="500">
<path d="M0 0 C165 0 330 0 500 0 C500 165 500 330 500 500 C335 500 170 500 0 500 C0 335 0 170 0 0 Z " fill="#F2F5F9" transform="translate(0,0)"/>
<path d="M0 0 C39.09505603 -0.74448593 69.83680965 6.54343353 99 34 C99.61488281 34.55042969 100.22976563 35.10085937 100.86328125 35.66796875 C106.58852774 40.99837065 110.73827625 47.4981394 115 54 C115.55945313 54.83660156 116.11890625 55.67320313 116.6953125 56.53515625 C124.42850353 68.66128564 128.18474699 82.03923248 131 96 C131.19335938 96.90363281 131.38671875 97.80726563 131.5859375 98.73828125 C135.31519713 128.11499626 128.64980222 157.58617597 111.1015625 181.59765625 C109.12711061 184.12230126 107.08763885 186.56833078 105 189 C104.31164062 189.82242188 103.62328125 190.64484375 102.9140625 191.4921875 C88.86622264 207.77145319 71.22827513 217.84202965 51.125 224.8125 C50.46943115 225.04420898 49.8138623 225.27591797 49.13842773 225.51464844 C44.35268027 227.11756009 44.35268027 227.11756009 41 226 C41.39832031 225.27296875 41.79664063 224.5459375 42.20703125 223.796875 C45.07149888 218.36065906 47.14152711 213.8680661 47.9375 207.75 C48.85210722 203.6073673 49.53027788 202.33863688 53.0234375 199.8203125 C55.58886819 198.43097519 58.22266075 197.21017408 60.87109375 195.98828125 C81.4173498 186.48871037 96.16249337 167.71433236 104.18359375 146.93359375 C107.87096485 136.3577272 109.36921888 126.5066699 109.3125 115.3125 C109.30758545 114.1663623 109.3026709 113.02022461 109.29760742 111.83935547 C108.95558667 87.03495811 98.89659548 65.2951666 81.6640625 47.6015625 C69.31821325 35.89498052 54.28630489 29.07238143 38.22094727 24.14819336 C35.01517846 23.00541077 32.25724634 21.62515876 29.296875 19.953125 C28.23339844 19.355 27.16992188 18.756875 26.07421875 18.140625 C24.97722656 17.51671875 23.88023437 16.8928125 22.75 16.25 C21.66847656 15.6415625 20.58695313 15.033125 19.47265625 14.40625 C16.30649513 12.61883938 13.15320651 10.81013698 10 9 C9.00162109 8.44376953 8.00324219 7.88753906 6.97460938 7.31445312 C6.06001953 6.79302734 5.14542969 6.27160156 4.203125 5.734375 C3.39004883 5.27772461 2.57697266 4.82107422 1.73925781 4.35058594 C1.16530273 3.90489258 0.59134766 3.45919922 0 3 C0 2.01 0 1.02 0 0 Z " fill="#728BA1" transform="translate(213,56)"/>
<path d="M0 0 C1.58663984 0.78046178 3.1718019 1.5639282 4.75634766 2.34863281 C5.63924469 2.78459778 6.52214172 3.22056274 7.43179321 3.66973877 C10.90875791 5.47071187 14.13545446 7.55832568 17.375 9.75 C20.91182874 12.1414225 23.77795599 13.944489 28 15 C28 67.14 28 119.28 28 173 C15.4787234 166.17021277 15.4787234 166.17021277 10.625 162.5 C9.66851562 161.7884375 8.71203125 161.076875 7.7265625 160.34375 C6.82679688 159.5703125 5.92703125 158.796875 5 158 C4.13047195 157.26349213 3.26094391 156.52698425 2.36506653 155.76815796 C-1.79056221 150.63463917 -0.64987336 143.61514599 -0.56762695 137.36572266 C-0.56621562 135.86732023 -0.56701014 134.36891434 -0.56983948 132.87051392 C-0.57127172 128.81284274 -0.54191372 124.75591338 -0.50696969 120.69841433 C-0.47567387 116.45436667 -0.47277292 112.21030125 -0.46684265 107.96615601 C-0.45131364 99.93385075 -0.41029809 91.90188652 -0.3600952 83.86973131 C-0.30417228 74.72350246 -0.27670784 65.57725716 -0.25161803 56.43089986 C-0.19938128 37.6204067 -0.11145747 18.81023079 0 0 Z " fill="#53708A" transform="translate(140,0)"/>
<path d="M0 0 C0 3 0 3 -1 5 C-1.85262204 13.30258185 -0.76092756 19.08360675 4.296875 25.6953125 C16.61900668 39.35128318 35.97599766 46.89012874 52 55 C111.37650674 85.06427039 111.37650674 85.06427039 120.03125 108.83203125 C123.4241708 120.3145549 121.71868791 129.73890509 116.26953125 140.37890625 C112.49027717 146.76818411 108.24388806 152.34834225 103.14453125 157.734375 C101.20701508 159.78129554 99.41735413 161.88943103 97.625 164.0625 C94.08512524 168.1349948 90.01489457 171.3946205 85.80078125 174.74609375 C81.73534324 178.01772239 77.86591761 181.49681046 74 185 C73.34 184.67 72.68 184.34 72 184 C72.67804688 183.36835938 73.35609375 182.73671875 74.0546875 182.0859375 C85.18006891 171.39201132 99.19317924 155.9401638 100.203125 139.7421875 C100.29271389 132.35110442 100.29550479 125.76777995 97 119 C96.44892578 117.83984375 96.44892578 117.83984375 95.88671875 116.65625 C84.3810684 95.20618799 59.6276861 83.67697376 39.2421875 72.453125 C-8.32957318 46.24645945 -8.32957318 46.24645945 -14 29 C-14.99136152 23.20974686 -14.37926233 18.21882892 -11.484375 13.08984375 C-8.12054005 8.35391823 -4.10284231 4.10284231 0 0 Z " fill="#0E1623" transform="translate(134,134)"/>
<path d="M0 0 C0.61721452 0.31648845 1.23442904 0.63297689 1.87034702 0.9590559 C6.07667862 3.09267327 10.22247318 5.11434523 14.63694763 6.78010559 C19.67760649 8.95862994 23.85617081 11.39073604 27 16 C29.92525657 25.34124913 29.0348336 35.69875529 28.72369695 45.38540626 C28.61676523 49.27928773 28.60738935 53.17343467 28.58726501 57.06855774 C28.53460961 64.42970983 28.39538937 71.78652386 28.22432369 79.14577276 C28.03370682 87.52977478 27.94069312 95.91399421 27.85550129 104.29962671 C27.67822866 121.53558607 27.37960459 138.76733322 27 156 C21.63393362 153.87321732 16.45838856 151.42220359 11.25 148.9375 C10.27933594 148.47794922 9.30867187 148.01839844 8.30859375 147.54492188 C7.38691406 147.10599609 6.46523437 146.66707031 5.515625 146.21484375 C4.67290039 145.81386475 3.83017578 145.41288574 2.96191406 144.99975586 C1 144 1 144 0 143 C-0.09648248 141.15238732 -0.12187318 139.3010419 -0.12025452 137.45091248 C-0.12162918 136.24631378 -0.12300385 135.04171509 -0.12442017 133.8006134 C-0.12088056 132.45358252 -0.11724575 131.10655188 -0.11352539 129.75952148 C-0.11324352 128.35052492 -0.11340125 126.94152821 -0.1139679 125.53253174 C-0.11425589 121.6959237 -0.10835894 117.85934666 -0.10139394 114.02274585 C-0.09516063 110.01753059 -0.09455662 106.0123147 -0.09336853 102.00709534 C-0.09025515 94.41747996 -0.08204167 86.82787892 -0.07201904 79.23826987 C-0.06085812 70.59996076 -0.05534751 61.96165099 -0.05032361 53.32333648 C-0.03985906 35.54888285 -0.02225948 17.77444258 0 0 Z " fill="#4F6C87" transform="translate(177,35)"/>
<path d="M0 0 C3.16844698 1.24417923 6.10493878 2.53561196 9.03125 4.27734375 C9.75957031 4.70853516 10.48789063 5.13972656 11.23828125 5.58398438 C11.98464844 6.03064453 12.73101562 6.47730469 13.5 6.9375 C14.24636719 7.38029297 14.99273437 7.82308594 15.76171875 8.27929688 C17.84358206 9.51551836 19.9226926 10.75614041 22 12 C22.85485583 12.41107152 23.70971167 12.82214304 24.59047222 13.24567127 C27 15 27 15 27.61523914 17.39940166 C27.61063018 18.35530099 27.60602121 19.31120031 27.60127258 20.29606628 C27.61158257 21.94301231 27.61158257 21.94301231 27.62210083 23.62322998 C27.60412445 24.82804016 27.58614807 26.03285034 27.56762695 27.27416992 C27.56835709 28.54257217 27.56908722 29.81097443 27.56983948 31.11781311 C27.5712757 34.59721657 27.54185433 38.0757604 27.50696969 41.55496383 C27.47573959 45.19043239 27.47277813 48.82592007 27.46684265 52.46150208 C27.45129422 59.34645655 27.41025271 66.23101465 27.3600952 73.11579448 C27.30423244 80.95362744 27.27672304 88.79147921 27.25161803 96.62946165 C27.19933733 112.75320657 27.11137619 128.87655273 27 145 C24.41588703 143.72616466 21.99610352 142.40819108 19.609375 140.79296875 C18.98160156 140.37080078 18.35382813 139.94863281 17.70703125 139.51367188 C17.06121094 139.07603516 16.41539062 138.63839844 15.75 138.1875 C14.47477433 137.32561435 13.19872924 136.46493988 11.921875 135.60546875 C11.32159233 135.18798213 10.72130966 134.77049551 10.10283661 134.34035778 C8.05895157 132.96066684 8.05895157 132.96066684 5.89893341 132.08485126 C3.49381234 130.95811312 1.84502524 129.92330686 0 128 C-1.18437451 123.90908173 -1.01145822 119.91463899 -0.90820312 115.68237305 C-0.90937134 114.43318588 -0.91053955 113.18399872 -0.91174316 111.8969574 C-0.90712878 108.478484 -0.8670714 105.06389261 -0.8111515 101.64610648 C-0.76108201 98.07211526 -0.75643722 94.49807018 -0.74694824 90.92378235 C-0.72209973 84.15900163 -0.65647547 77.3952573 -0.57615232 70.63093263 C-0.48667929 62.92857068 -0.44273408 55.22615878 -0.40258884 47.52340639 C-0.31900599 31.68167104 -0.17832747 15.84096925 0 0 Z " fill="#516E88" transform="translate(214,69)"/>
<path d="M0 0 C2.06575922 2.62646529 3.65309062 5.19461759 5.125 8.1875 C15.29887516 26.57873587 39.28148718 36.82191241 57.08984375 46.234375 C101.51207842 69.73339933 101.51207842 69.73339933 110.875 93.3125 C114.08423602 104.16277416 112.36112468 117.09357396 107 127 C106.67 127 106.34 127 106 127 C105.88785156 125.90945313 105.88785156 125.90945313 105.7734375 124.796875 C103.57304499 107.97034402 94.15034915 96.63760019 81.4375 86.1875 C72.11312355 79.06984415 61.52663401 73.64698603 51.34033203 67.89160156 C24.68144653 52.79490189 24.68144653 52.79490189 16 45 C15.21753906 44.35804688 14.43507812 43.71609375 13.62890625 43.0546875 C8.32708929 38.61474226 4.36076884 34.05369259 1 28 C0.6596875 27.39929688 0.319375 26.79859375 -0.03125 26.1796875 C-3.24010824 19.31629627 -3.41967178 9.11759209 -0.98046875 2.04296875 C-0.65691406 1.36878906 -0.33335938 0.69460937 0 0 Z " fill="#0E1623" transform="translate(117,165)"/>
<path d="M0 0 C3.63467079 1.62400184 4.77408696 2.66113044 7 6 C7.1953125 8.26171875 7.1953125 8.26171875 7.125 10.6875 C7.10695312 11.49574219 7.08890625 12.30398438 7.0703125 13.13671875 C7.04710937 13.75160156 7.02390625 14.36648438 7 15 C8.58083374 14.94501343 8.58083374 14.94501343 10.19360352 14.88891602 C14.12742009 14.76160868 18.06105732 14.68163992 21.99633789 14.61547852 C23.69489217 14.5804118 25.39323718 14.53274201 27.09106445 14.47192383 C41.13483968 13.98168937 41.13483968 13.98168937 45.61328125 16.42675781 C47.42002834 18.18700773 48.71166797 19.83915899 50 22 C50.86238281 23.22589844 50.86238281 23.22589844 51.7421875 24.4765625 C52.11601562 25.18554688 52.48984375 25.89453125 52.875 26.625 C53.26429688 27.33914063 53.65359375 28.05328125 54.0546875 28.7890625 C55.07684131 31.17971975 55.52410633 33.45083311 56 36 C47.48114884 36.13913866 38.96277382 36.24568913 30.4430666 36.31087303 C26.48678208 36.34216157 22.53127596 36.38458591 18.57543945 36.45263672 C14.75634831 36.51792255 10.93800483 36.55372469 7.11839867 36.56926346 C5.66267311 36.58033371 4.20698763 36.60195277 2.75158119 36.63438034 C-8.50467559 36.87515989 -8.50467559 36.87515989 -12.01051331 34.82331848 C-14.87549708 31.70325225 -15.63207684 28.45985154 -15.62890625 24.33984375 C-15.63083984 23.29892578 -15.63277344 22.25800781 -15.63476562 21.18554688 C-15.61091797 20.11369141 -15.58707031 19.04183594 -15.5625 17.9375 C-15.57345703 16.86177734 -15.58441406 15.78605469 -15.59570312 14.67773438 C-15.5231128 6.87185467 -15.5231128 6.87185467 -13.08984375 2.81640625 C-9.03851099 -0.70484559 -5.18072467 -0.51090191 0 0 Z " fill="#1E4061" transform="translate(155,249)"/>
<path d="M0 0 C0.99 0 1.98 0 3 0 C3 10.23 3 20.46 3 31 C4.32 30.67 5.64 30.34 7 30 C6.67 30.99 6.34 31.98 6 33 C3.33333333 33 0.66666667 33 -2 33 C-3.9490625 33.1546875 -3.9490625 33.1546875 -5.9375 33.3125 C-8.08984375 33.3046875 -8.08984375 33.3046875 -10 33 C-12.69426788 30.22153625 -12.96456585 28.33071872 -13.375 24.5 C-12.97859791 20.80024712 -12.24169299 18.93144468 -10 16 C-7.26094655 14.63047327 -5.02912668 14.87378639 -2 15 C-1.34 15.33 -0.68 15.66 0 16 C0 10.72 0 5.44 0 0 Z " fill="#242B37" transform="translate(334,344)"/>
<path d="M0 0 C0 5.28 0 10.56 0 16 C1.32 15.67 2.64 15.34 4 15 C3.67 15.99 3.34 16.98 3 18 C0.33333333 18 -2.33333333 18 -5 18 C-6.299375 18.103125 -7.59875 18.20625 -8.9375 18.3125 C-11.08984375 18.3046875 -11.08984375 18.3046875 -13 18 C-15.69426788 15.22153625 -15.96456585 13.33071872 -16.375 9.5 C-15.97859791 5.80024712 -15.24169299 3.93144468 -13 1 C-9.14854957 -0.92572521 -4.19956748 -0.04883218 0 0 Z " fill="#202734" transform="translate(288,359)"/>
<path d="M0 0 C0 5.28 0 10.56 0 16 C1.32 15.67 2.64 15.34 4 15 C3.67 15.99 3.34 16.98 3 18 C0.33333333 18 -2.33333333 18 -5 18 C-6.299375 18.103125 -7.59875 18.20625 -8.9375 18.3125 C-11.08984375 18.3046875 -11.08984375 18.3046875 -13 18 C-15.69426788 15.22153625 -15.96456585 13.33071872 -16.375 9.5 C-15.97859791 5.80024712 -15.24169299 3.93144468 -13 1 C-9.14854957 -0.92572521 -4.19956748 -0.04883218 0 0 Z " fill="#202734" transform="translate(245,359)"/>
<path d="M0 0 C0 5.28 0 10.56 0 16 C1.32 15.67 2.64 15.34 4 15 C4 15.99 4 16.98 4 18 C2.02 18 0.04 18 -2 18 C-2 17.34 -2 16.68 -2 16 C-2.99 16.66 -3.98 17.32 -5 18 C-8.5 18.4375 -8.5 18.4375 -12 18 C-14.65678304 15.25751428 -15.21315179 12.70174544 -15.4375 9 C-15.28751297 6.17167315 -14.85656057 4.67213845 -13.6875 2 C-9.34563154 -1.23115792 -5.30577302 -0.31581982 0 0 Z " fill="#111925" transform="translate(296,408)"/>
<path d="M0 0 C4.14182881 0.862881 5.56226471 2.18349135 8 5.625 C8.98186223 9.8598145 8.47015934 12.77509657 6.375 16.5625 C3.44315739 19.10857385 1.88165184 19.70421738 -2 19.625 C-5.37545234 17.52471854 -6.73400961 16.42297116 -8 12.625 C-8.48820347 8.23116873 -8.503012 6.32034012 -5.875 2.6875 C-3 0.625 -3 0.625 0 0 Z " fill="#1D2531" transform="translate(171,407.375)"/>
<path d="M0 0 C2.27677176 1.46219342 3.34776031 2.79701375 5 5 C4.01 5.495 4.01 5.495 3 6 C2.01 5.34 1.02 4.68 0 4 C-3.04453491 3.51780847 -5.95291087 3.53715102 -9 4 C-11.50160818 5.87620613 -12.61945652 7.23891303 -14 10 C-14.50518686 16.48970812 -14.88553655 22.4705826 -11 28 C-8.67313547 29.16343227 -7.15278587 29.19895988 -4.5625 29.25 C-3.78003906 29.27578125 -2.99757812 29.3015625 -2.19140625 29.328125 C0.51361993 28.92309434 1.16706755 27.94015134 3 26 C3.99 26 4.98 26 6 26 C4.48941618 30.22963468 1.87685679 31.91246173 -2 34 C-5.91076402 34.651794 -7.59577511 34.21019695 -11.125 32.375 C-15.4418947 28.80886959 -18.55427237 24.70465427 -19.23828125 19.01953125 C-19.48157538 11.78473199 -17.5427152 6.99142965 -12.875 1.5 C-8.62115494 -0.71939742 -4.69427286 -0.93115904 0 0 Z " fill="#282F3B" transform="translate(152,393)"/>
<path d="M0 0 C0.99 0 1.98 0 3 0 C3.33 5.28 3.66 10.56 4 16 C9.47825081 14.67082039 9.47825081 14.67082039 11 13 C11.23481693 10.81707226 11.41363323 8.62796826 11.5625 6.4375 C11.64628906 5.23996094 11.73007812 4.04242188 11.81640625 2.80859375 C11.87699219 1.88175781 11.93757813 0.95492188 12 0 C12.99 0 13.98 0 15 0 C15.12406007 4.03825066 15.21455045 8.07575638 15.2746582 12.11547852 C15.29972617 13.48807102 15.33379082 14.86053102 15.37719727 16.23266602 C15.43817531 18.21050696 15.46361009 20.18934184 15.48828125 22.16796875 C15.51446533 23.35672607 15.54064941 24.5454834 15.56762695 25.77026367 C14.83302161 29.95008911 13.28903325 31.40764516 10 34 C5.85775694 34.57991403 4.51824511 34.34549674 1 32 C1 31.01 1 30.02 1 29 C1.63808594 29.08378906 2.27617187 29.16757812 2.93359375 29.25390625 C3.75988281 29.35574219 4.58617187 29.45757812 5.4375 29.5625 C6.26121094 29.66691406 7.08492188 29.77132813 7.93359375 29.87890625 C8.61550781 29.91886719 9.29742187 29.95882813 10 30 C11.31262571 28.91447634 11.31262571 28.91447634 11.09765625 26.27734375 C11.08605469 25.17519531 11.07445312 24.07304687 11.0625 22.9375 C11.05347656 21.83277344 11.04445313 20.72804688 11.03515625 19.58984375 C11.02355469 18.73519531 11.01195312 17.88054687 11 17 C10.67 17.33 10.34 17.66 10 18 C4.1589404 18.37086093 4.1589404 18.37086093 2 18 C-0.45391569 14.31912647 -0.22802759 11.55644412 -0.125 7.3125 C-0.11597656 6.61060547 -0.10695313 5.90871094 -0.09765625 5.18554688 C-0.07413704 3.45688475 -0.03826713 1.72839855 0 0 Z " fill="#121A26" transform="translate(351,408)"/>
<path d="M0 0 C0.99 0 1.98 0 3 0 C3.33 5.28 3.66 10.56 4 16 C4.66 15.67 5.32 15.34 6 15 C11.30863536 14.54820125 11.30863536 14.54820125 13.6796875 16.09765625 C15.6498936 18.93638516 15.28865242 21.28203517 15.1875 24.6875 C15.16042969 25.86699219 15.13335937 27.04648437 15.10546875 28.26171875 C15.07066406 29.16535156 15.03585938 30.06898438 15 31 C16.32 30.67 17.64 30.34 19 30 C18.67 30.99 18.34 31.98 18 33 C16.33388095 33.042721 14.66617115 33.04063832 13 33 C11.12175109 31.12175109 11.60897603 27.96064724 11.4375 25.4375 C11.35371094 24.23996094 11.26992187 23.04242188 11.18359375 21.80859375 C11.12300781 20.88175781 11.06242188 19.95492188 11 19 C9.00045254 18.95745644 6.99958364 18.95919217 5 19 C3.12175109 20.87824891 3.60897603 24.03935276 3.4375 26.5625 C3.35371094 27.76003906 3.26992187 28.95757812 3.18359375 30.19140625 C3.12300781 31.11824219 3.06242188 32.04507813 3 33 C2.01 33 1.02 33 0 33 C0 22.11 0 11.22 0 0 Z " fill="#252C38" transform="translate(149,344)"/>
<path d="M0 0 C3.3125 0.5 3.3125 0.5 5.3125 2.5 C5.4375 5.625 5.4375 5.625 5.3125 8.5 C1.58284861 10.53435531 -0.35655042 11.5 -4.6875 11.5 C-4.0275 12.82 -3.3675 14.14 -2.6875 15.5 C0.43540635 15.01421457 3.30830359 14.5013988 6.3125 13.5 C6.0625 15.375 6.0625 15.375 5.3125 17.5 C2.39902783 19.58105155 -0.16635447 20.02817183 -3.6875 19.5 C-7.14044595 16.62254504 -8.54508043 14.73430298 -9.0625 10.25 C-8.47040725 4.32907251 -6.29022565 0.85291195 0 0 Z " fill="#212835" transform="translate(353.6875,358.5)"/>
<path d="M0 0 C3.3125 0.5 3.3125 0.5 5.3125 2.5 C5.4375 5.625 5.4375 5.625 5.3125 8.5 C1.58284861 10.53435531 -0.35655042 11.5 -4.6875 11.5 C-4.0275 12.82 -3.3675 14.14 -2.6875 15.5 C0.43540635 15.01421457 3.30830359 14.5013988 6.3125 13.5 C6.0625 15.375 6.0625 15.375 5.3125 17.5 C2.39902783 19.58105155 -0.16635447 20.02817183 -3.6875 19.5 C-7.14044595 16.62254504 -8.54508043 14.73430298 -9.0625 10.25 C-8.47040725 4.32907251 -6.29022565 0.85291195 0 0 Z " fill="#212835" transform="translate(180.6875,358.5)"/>
<path d="M0 0 C0.99 0 1.98 0 3 0 C3.33 -0.33 3.66 -0.66 4 -1 C7.49412313 -1.3882359 9.31696076 -1.50953017 12.18359375 0.62890625 C14.53136717 3.69363414 14.41575607 5.43761034 14.25 9.25 C14.21390625 10.32765625 14.1778125 11.4053125 14.140625 12.515625 C14.07101562 13.74539063 14.07101562 13.74539063 14 15 C15.32 14.67 16.64 14.34 18 14 C17.67 14.99 17.34 15.98 17 17 C15.00045254 17.04254356 12.99958364 17.04080783 11 17 C9.12175109 15.12175109 9.60897603 11.96064724 9.4375 9.4375 C9.31181641 7.64119141 9.31181641 7.64119141 9.18359375 5.80859375 C9.12300781 4.88175781 9.06242187 3.95492188 9 3 C6.58354218 2.83312552 6.58354218 2.83312552 4 3 C1.31907309 5.68092691 1.61329743 7.39167363 1.375 11.125 C1.30023438 12.22070312 1.22546875 13.31640625 1.1484375 14.4453125 C1.09945313 15.28835938 1.05046875 16.13140625 1 17 C0.01 17 -0.98 17 -2 17 C-2 12.05 -2 7.1 -2 2 C-2.99 2 -3.98 2 -5 2 C-5 2.99 -5 3.98 -5 5 C-5.99 5 -6.98 5 -8 5 C-7.625 2.5625 -7.625 2.5625 -7 0 C-4.31581667 -1.34209166 -2.88064523 -0.63233676 0 0 Z " fill="#353C47" transform="translate(308,409)"/>
<path d="M0 0 C7.92 0 15.84 0 24 0 C24 0.99 24 1.98 24 3 C20.37 3 16.74 3 13 3 C13 12.9 13 22.8 13 33 C12.01 33 11.02 33 10 33 C10 23.1 10 13.2 10 3 C6.7 3 3.4 3 0 3 C0 2.01 0 1.02 0 0 Z " fill="#1D2531" transform="translate(119,344)"/>
<path d="M0 0 C1.2065625 0.0309375 1.2065625 0.0309375 2.4375 0.0625 C2.7675 1.0525 3.0975 2.0425 3.4375 3.0625 C4.241875 2.32 4.241875 2.32 5.0625 1.5625 C8.10423285 -0.35859443 9.89799143 -0.38935216 13.4375 0.0625 C15.109375 1.16796875 15.109375 1.16796875 16.4375 3.0625 C16.73046875 6.19921875 16.73046875 6.19921875 16.625 9.75 C16.59792969 10.92949219 16.57085937 12.10898437 16.54296875 13.32421875 C16.50816406 14.22785156 16.47335938 15.13148438 16.4375 16.0625 C17.7575 15.7325 19.0775 15.4025 20.4375 15.0625 C20.4375 16.0525 20.4375 17.0425 20.4375 18.0625 C18.43795254 18.10504356 16.43708364 18.10330783 14.4375 18.0625 C12.55925109 16.18425109 13.04647603 13.02314724 12.875 10.5 C12.74931641 8.70369141 12.74931641 8.70369141 12.62109375 6.87109375 C12.56050781 5.94425781 12.49992187 5.01742188 12.4375 4.0625 C10.02104218 3.89562552 10.02104218 3.89562552 7.4375 4.0625 C4.75657309 6.74342691 5.05079743 8.45417363 4.8125 12.1875 C4.73773438 13.28320312 4.66296875 14.37890625 4.5859375 15.5078125 C4.53695312 16.35085938 4.48796875 17.19390625 4.4375 18.0625 C3.4475 18.0625 2.4575 18.0625 1.4375 18.0625 C1.4375 13.1125 1.4375 8.1625 1.4375 3.0625 C0.4475 3.0625 -0.5425 3.0625 -1.5625 3.0625 C-1.5625 4.0525 -1.5625 5.0425 -1.5625 6.0625 C-2.5525 6.0625 -3.5425 6.0625 -4.5625 6.0625 C-3.48963568 0.08511307 -3.48963568 0.08511307 0 0 Z " fill="#1E2632" transform="translate(185.5625,407.9375)"/>
<path d="M0 0 C1.2065625 0.0309375 1.2065625 0.0309375 2.4375 0.0625 C2.7675 1.0525 3.0975 2.0425 3.4375 3.0625 C4.241875 2.32 4.241875 2.32 5.0625 1.5625 C8.10423285 -0.35859443 9.89799143 -0.38935216 13.4375 0.0625 C15.109375 1.16796875 15.109375 1.16796875 16.4375 3.0625 C16.73046875 6.19921875 16.73046875 6.19921875 16.625 9.75 C16.59792969 10.92949219 16.57085937 12.10898437 16.54296875 13.32421875 C16.50816406 14.22785156 16.47335937 15.13148438 16.4375 16.0625 C17.7575 15.7325 19.0775 15.4025 20.4375 15.0625 C20.1075 16.0525 19.7775 17.0425 19.4375 18.0625 C17.77138095 18.105221 16.10367115 18.10313832 14.4375 18.0625 C12.55925109 16.18425109 13.04647603 13.02314724 12.875 10.5 C12.74931641 8.70369141 12.74931641 8.70369141 12.62109375 6.87109375 C12.56050781 5.94425781 12.49992187 5.01742188 12.4375 4.0625 C10.43795254 4.01995644 8.43708364 4.02169217 6.4375 4.0625 C4.55925109 5.94074891 5.04647603 9.10185276 4.875 11.625 C4.79121094 12.82253906 4.70742188 14.02007812 4.62109375 15.25390625 C4.56050781 16.18074219 4.49992187 17.10757812 4.4375 18.0625 C3.4475 18.0625 2.4575 18.0625 1.4375 18.0625 C1.4375 13.1125 1.4375 8.1625 1.4375 3.0625 C-1.68035113 3.70894661 -1.68035113 3.70894661 -2.5625 6.0625 C-3.2225 6.0625 -3.8825 6.0625 -4.5625 6.0625 C-3.48963568 0.08511307 -3.48963568 0.08511307 0 0 Z " fill="#141C29" transform="translate(296.5625,358.9375)"/>
<path d="M0 0 C0.99 0 1.98 0 3 0 C3 9.9 3 19.8 3 30 C7.62 30 12.24 30 17 30 C17 30.99 17 31.98 17 33 C11.39 33 5.78 33 0 33 C0 22.11 0 11.22 0 0 Z " fill="#101825" transform="translate(207,344)"/>
<path d="M0 0 C0.99 0 1.98 0 3 0 C3.33 4.62 3.66 9.24 4 14 C5.65 14.33 7.3 14.66 9 15 C11.77042109 12.22957891 11.39796106 10.23466195 11.625 6.375 C11.69976562 5.18648438 11.77453125 3.99796875 11.8515625 2.7734375 C11.90054688 1.85820312 11.94953125 0.94296875 12 0 C12.99 0 13.98 0 15 0 C15 5.28 15 10.56 15 16 C16.32 15.67 17.64 15.34 19 15 C19 15.99 19 16.98 19 18 C17.35 18.33 15.7 18.66 14 19 C13.67 18.01 13.34 17.02 13 16 C12.01 16.66 11.02 17.32 10 18 C3.89543938 18.54505006 3.89543938 18.54505006 1.29296875 16.9609375 C-0.70546676 13.9300776 -0.31485327 10.80981673 -0.1875 7.3125 C-0.17396484 6.61060547 -0.16042969 5.90871094 -0.14648438 5.18554688 C-0.11120182 3.45670171 -0.05739583 1.72825235 0 0 Z " fill="#222936" transform="translate(230,408)"/>
<path d="M0 0 C3.5 0.1875 3.5 0.1875 5.5 1.1875 C5.5 2.1775 5.5 3.1675 5.5 4.1875 C3.19 3.8575 0.88 3.5275 -1.5 3.1875 C-1.83 4.5075 -2.16 5.8275 -2.5 7.1875 C-0.7984375 7.6515625 -0.7984375 7.6515625 0.9375 8.125 C4.5 9.1875 4.5 9.1875 5.5 10.1875 C5.8125 13.0625 5.8125 13.0625 5.5 16.1875 C3.9375 18.125 3.9375 18.125 1.5 19.1875 C-2.125 19.0625 -2.125 19.0625 -5.5 18.1875 C-6.16 17.1975 -6.82 16.2075 -7.5 15.1875 C-4.43109813 13.65304906 -1.79905734 14.63765711 1.5 15.1875 C1.83 13.8675 2.16 12.5475 2.5 11.1875 C1.571875 11.084375 0.64375 10.98125 -0.3125 10.875 C-3.5 10.1875 -3.5 10.1875 -5.4375 8.9375 C-6.5 7.1875 -6.5 7.1875 -6.3125 4.625 C-5.005077 0.702731 -4.16236167 0.22298366 0 0 Z " fill="#2A313D" transform="translate(217.5,407.8125)"/>
<path d="M0 0 C0.886875 0.020625 1.77375 0.04125 2.6875 0.0625 C4.0075 0.0625 5.3275 0.0625 6.6875 0.0625 C8.0075 0.0625 9.3275 0.0625 10.6875 0.0625 C10.6875 1.3825 10.6875 2.7025 10.6875 4.0625 C12.6675 3.0725 14.6475 2.0825 16.6875 1.0625 C16.6875 2.0525 16.6875 3.0425 16.6875 4.0625 C14.6875 6.0625 14.6875 6.0625 12.0625 6.1875 C11.27875 6.14625 10.495 6.105 9.6875 6.0625 C9.3575 5.0725 9.0275 4.0825 8.6875 3.0625 C6.24039624 4.93227097 5.71818507 5.88752483 5.17578125 8.98046875 C5.11777344 10.05941406 5.05976563 11.13835937 5 12.25 C4.93425781 13.33667969 4.86851562 14.42335938 4.80078125 15.54296875 C4.76339844 16.37441406 4.72601563 17.20585937 4.6875 18.0625 C3.6975 18.0625 2.7075 18.0625 1.6875 18.0625 C1.6875 13.1125 1.6875 8.1625 1.6875 3.0625 C-1.43035113 3.70894661 -1.43035113 3.70894661 -2.3125 6.0625 C-2.9725 6.0625 -3.6325 6.0625 -4.3125 6.0625 C-3.2400766 0.08756964 -3.2400766 0.08756964 0 0 Z " fill="#111926" transform="translate(365.3125,358.9375)"/>
<path d="M0 0 C3.4375 0.4375 3.4375 0.4375 6.4375 2.4375 C6.4375 3.4275 6.4375 4.4175 6.4375 5.4375 C5.79941406 5.35371094 5.16132813 5.26992188 4.50390625 5.18359375 C3.67761719 5.08175781 2.85132813 4.97992188 2 4.875 C1.17628906 4.77058594 0.35257812 4.66617187 -0.49609375 4.55859375 C-1.51896484 4.49865234 -1.51896484 4.49865234 -2.5625 4.4375 C-3.82199049 5.47156673 -3.82199049 5.47156673 -3.66015625 7.72265625 C-3.64855469 8.63917969 -3.63695312 9.55570312 -3.625 10.5 C-3.61597656 11.41910156 -3.60695313 12.33820313 -3.59765625 13.28515625 C-3.58605469 13.99542969 -3.57445312 14.70570313 -3.5625 15.4375 C0.38477588 15.61692163 3.0355513 15.53100689 6.4375 13.4375 C6.4375 16.4375 6.4375 16.4375 4.875 18.1875 C1.35655291 19.99183184 -0.80823639 19.46139008 -4.5625 18.4375 C-6.92094272 16.61160886 -7.43848548 15.26684711 -7.875 12.34765625 C-8.0856322 8.39172025 -7.82136238 5.94487026 -6 2.375 C-3.5625 0.4375 -3.5625 0.4375 0 0 Z " fill="#222A36" transform="translate(337.5625,407.5625)"/>
<path d="M0 0 C1.57922406 1.57922406 1.207659 3.19443874 1.25 5.375 C1.28867187 6.56222656 1.28867187 6.56222656 1.328125 7.7734375 C1 10 1 10 -0.35546875 11.80078125 C-2 13 -2 13 -4.5625 12.8125 C-7 12 -7 12 -9 10 C-9.55021834 3.94759825 -9.55021834 3.94759825 -7.875 1.0625 C-5.18550771 -0.46154563 -3.03109027 -0.26357307 0 0 Z " fill="#E0E3E8" transform="translate(333,362)"/>
<path d="M0 0 C1.57922406 1.57922406 1.207659 3.19443874 1.25 5.375 C1.28867187 6.56222656 1.28867187 6.56222656 1.328125 7.7734375 C1 10 1 10 -0.35546875 11.80078125 C-2 13 -2 13 -4.5625 12.8125 C-7 12 -7 12 -9 10 C-9.55021834 3.94759825 -9.55021834 3.94759825 -7.875 1.0625 C-5.18550771 -0.46154563 -3.03109027 -0.26357307 0 0 Z " fill="#DFE2E7" transform="translate(284,362)"/>
<path d="M0 0 C1.57922406 1.57922406 1.207659 3.19443874 1.25 5.375 C1.28867188 6.56222656 1.28867188 6.56222656 1.328125 7.7734375 C1 10 1 10 -0.35546875 11.80078125 C-2 13 -2 13 -4.5625 12.8125 C-7 12 -7 12 -9 10 C-9.55021834 3.94759825 -9.55021834 3.94759825 -7.875 1.0625 C-5.18550771 -0.46154563 -3.03109027 -0.26357307 0 0 Z " fill="#DFE2E7" transform="translate(241,362)"/>
<path d="M0 0 C3 -0.375 3 -0.375 6 0 C8.32579101 3.48868651 8.41865457 4.89718519 8 9 C6.5 11.375 6.5 11.375 5 13 C2.625 12.6875 2.625 12.6875 0 12 C-2.31332486 8.53001271 -2.33957563 7.07490752 -2 3 C-1.34 2.01 -0.68 1.02 0 0 Z " fill="#E9EDF1" transform="translate(168,411)"/>
<path d="M0 0 C0.99 0 1.98 0 3 0 C3 2.31 3 4.62 3 7 C4.65 7 6.3 7 8 7 C8 7.99 8 8.98 8 10 C6.35 10 4.7 10 3 10 C3 14.29 3 18.58 3 23 C4.65 22.67 6.3 22.34 8 22 C7.67 22.99 7.34 23.98 7 25 C5.00045254 25.04254356 2.99958364 25.04080783 1 25 C0 24 0 24 -0.09765625 20.83984375 C-0.08025391 18.90818359 -0.08025391 18.90818359 -0.0625 16.9375 C-0.05347656 15.64714844 -0.04445313 14.35679687 -0.03515625 13.02734375 C-0.02355469 12.02832031 -0.01195312 11.02929688 0 10 C-1.32 10 -2.64 10 -4 10 C-4 9.34 -4 8.68 -4 8 C-2.68 8 -1.36 8 0 8 C0 5.36 0 2.72 0 0 Z " fill="#202734" transform="translate(268,401)"/>
<path d="M0 0 C0.99 0 1.98 0 3 0 C3 10.23 3 20.46 3 31 C4.32 30.67 5.64 30.34 7 30 C6.67 30.99 6.34 31.98 6 33 C4.02 33 2.04 33 0 33 C0 22.11 0 11.22 0 0 Z " fill="#29313D" transform="translate(255,393)"/>
<path d="M0 0 C3.625 -0.1875 3.625 -0.1875 7 0 C7.08086147 1.79093191 7.13912702 3.58289628 7.1875 5.375 C7.22230469 6.37273437 7.25710938 7.37046875 7.29296875 8.3984375 C7.19628906 9.25695312 7.09960938 10.11546875 7 11 C4 13 4 13 1.375 12.75 C0.59125 12.5025 -0.1925 12.255 -1 12 C-2.50934217 8.98131566 -2.17510672 6.32702771 -2 3 C-1.34 2.01 -0.68 1.02 0 0 Z " fill="#E7EAEF" transform="translate(286,411)"/>
<path d="M0 0 C0.99 0.33 1.98 0.66 3 1 C4.6635348 4.56630705 5.7531816 8.25954481 7 12 C8.98 8.04 10.96 4.08 13 0 C13.66 0 14.32 0 15 0 C14.41347648 4.48993869 13.2356462 8.22543184 11.4375 12.375 C10.98246094 13.43460937 10.52742188 14.49421875 10.05859375 15.5859375 C9.70925781 16.38257813 9.35992187 17.17921875 9 18 C7.171875 17.89453125 7.171875 17.89453125 5 17 C3.515625 14.19921875 3.515625 14.19921875 2.25 10.6875 C1.82203125 9.53636719 1.3940625 8.38523437 0.953125 7.19921875 C0 4 0 4 0 0 Z " fill="#232B37" transform="translate(252,359)"/>
<path d="M0 0 C0.66 0 1.32 0 2 0 C2 5.94 2 11.88 2 18 C2.66 18 3.32 18 4 18 C3.67 22.95 3.34 27.9 3 33 C2.01 33 1.02 33 0 33 C0 22.11 0 11.22 0 0 Z " fill="#131B28" transform="translate(149,344)"/>
<path d="M0 0 C0.99 0.66 1.98 1.32 3 2 C2.67 2.99 2.34 3.98 2 5 C1.77674186 7.05893621 1.59294241 9.12233653 1.4375 11.1875 C1.35371094 12.27417969 1.26992188 13.36085938 1.18359375 14.48046875 C1.12300781 15.31191406 1.06242187 16.14335937 1 17 C0.01 17 -0.98 17 -2 17 C-2 12.05 -2 7.1 -2 2 C-2.99 2 -3.98 2 -5 2 C-5 2.99 -5 3.98 -5 5 C-5.99 5 -6.98 5 -8 5 C-7.625 2.5625 -7.625 2.5625 -7 0 C-4.28569464 -1.35715268 -2.88661718 -0.77445827 0 0 Z " fill="#29313D" transform="translate(308,409)"/>
<path d="M0 0 C0 4.95 0 9.9 0 15 C-0.33 15 -0.66 15 -1 15 C-1.33 10.71 -1.66 6.42 -2 2 C-2.66 2.66 -3.32 3.32 -4 4 C-6 4 -8 4 -10 4 C-12.30230766 4.89831016 -12.30230766 4.89831016 -14 6 C-14.33 5.34 -14.66 4.68 -15 4 C-11.29062832 -1.65237589 -6.07984865 -0.2895166 0 0 Z " fill="#363D48" transform="translate(288,359)"/>
<path d="M0 0 C0 4.95 0 9.9 0 15 C-0.33 15 -0.66 15 -1 15 C-1.33 10.71 -1.66 6.42 -2 2 C-2.66 2.66 -3.32 3.32 -4 4 C-6 4 -8 4 -10 4 C-12.30230766 4.89831016 -12.30230766 4.89831016 -14 6 C-14.33 5.34 -14.66 4.68 -15 4 C-11.29062832 -1.65237589 -6.07984865 -0.2895166 0 0 Z " fill="#363D48" transform="translate(245,359)"/>
<path d="M0 0 C0.99386719 0.02707031 1.98773438 0.05414063 3.01171875 0.08203125 C4.15060547 0.13423828 4.15060547 0.13423828 5.3125 0.1875 C4.9825 0.8475 4.6525 1.5075 4.3125 2.1875 C4.0849985 4.05806791 3.90287189 5.93435958 3.75 7.8125 C3.66621094 8.81539063 3.58242188 9.81828125 3.49609375 10.8515625 C3.43550781 11.62242187 3.37492187 12.39328125 3.3125 13.1875 C2.9825 13.1875 2.6525 13.1875 2.3125 13.1875 C2.3125 9.8875 2.3125 6.5875 2.3125 3.1875 C-2.70285052 3.51710216 -2.70285052 3.51710216 -6.6875 6.1875 C-7.6875 7.1875 -8.6875 8.1875 -9.6875 9.1875 C-9.08333333 3.75 -9.08333333 3.75 -7.5 1.5 C-4.95022262 -0.34639052 -3.10891866 -0.10972654 0 0 Z " fill="#2B333F" transform="translate(290.6875,407.8125)"/>
<path d="M0 0 C0.33 0 0.66 0 1 0 C1.33 4.62 1.66 9.24 2 14 C3.32 14 4.64 14 6 14 C5.67 14.99 5.34 15.98 5 17 C3.02 17 1.04 17 -1 17 C-1 16.01 -1 15.02 -1 14 C-1.66 13.67 -2.32 13.34 -3 13 C-2.67 12.67 -2.34 12.34 -2 12 C-1.79162581 10.17093765 -1.63250341 8.33611866 -1.5 6.5 C-1.11111111 1.11111111 -1.11111111 1.11111111 0 0 Z " fill="#141B28" transform="translate(286,360)"/>
<path d="M0 0 C0.33 0 0.66 0 1 0 C1.33 4.62 1.66 9.24 2 14 C3.32 14 4.64 14 6 14 C5.67 14.99 5.34 15.98 5 17 C3.02 17 1.04 17 -1 17 C-1 16.01 -1 15.02 -1 14 C-1.66 13.67 -2.32 13.34 -3 13 C-2.67 12.67 -2.34 12.34 -2 12 C-1.79162581 10.17093765 -1.63250341 8.33611866 -1.5 6.5 C-1.11111111 1.11111111 -1.11111111 1.11111111 0 0 Z " fill="#141B28" transform="translate(243,360)"/>
<path d="M0 0 C0 1.32 0 2.64 0 4 C1.98 3.01 3.96 2.02 6 1 C6 1.99 6 2.98 6 4 C4 6 4 6 1.375 6.125 C0.59125 6.08375 -0.1925 6.0425 -1 6 C-1.33 5.01 -1.66 4.02 -2 3 C-3.65 3.33 -5.3 3.66 -7 4 C-7 3.34 -7 2.68 -7 2 C-4 0 -4 0 0 0 Z " fill="#28303C" transform="translate(376,359)"/>
<path d="M0 0 C2.5625 0.1875 2.5625 0.1875 4.5625 2.1875 C4.875 5.1875 4.875 5.1875 4.5625 8.1875 C3.5725 8.8475 2.5825 9.5075 1.5625 10.1875 C0.5725 9.8575 -0.4175 9.5275 -1.4375 9.1875 C-1.1075 8.5275 -0.7775 7.8675 -0.4375 7.1875 C0.2225 7.1875 0.8825 7.1875 1.5625 7.1875 C1.36778889 5.23750871 1.36778889 5.23750871 0.5625 3.1875 C-1.4212767 1.90313266 -1.4212767 1.90313266 -3.4375 1.1875 C-2.4375 0.1875 -2.4375 0.1875 0 0 Z " fill="#1A212E" transform="translate(354.4375,358.8125)"/>
<path d="M0 0 C2.5625 0.1875 2.5625 0.1875 4.5625 2.1875 C4.875 5.1875 4.875 5.1875 4.5625 8.1875 C3.5725 8.8475 2.5825 9.5075 1.5625 10.1875 C0.5725 9.8575 -0.4175 9.5275 -1.4375 9.1875 C-1.1075 8.5275 -0.7775 7.8675 -0.4375 7.1875 C0.2225 7.1875 0.8825 7.1875 1.5625 7.1875 C1.36778889 5.23750871 1.36778889 5.23750871 0.5625 3.1875 C-1.4212767 1.90313266 -1.4212767 1.90313266 -3.4375 1.1875 C-2.4375 0.1875 -2.4375 0.1875 0 0 Z " fill="#1A212E" transform="translate(181.4375,358.8125)"/>
<path d="M0 0 C0.66 0 1.32 0 2 0 C1.40895235 4.84659077 0.02055843 8.60748167 -2 13 C-2.99 13 -3.98 13 -5 13 C-4.54803755 11.39402675 -4.08817673 9.79027492 -3.625 8.1875 C-3.36976563 7.29417969 -3.11453125 6.40085937 -2.8515625 5.48046875 C-2 3 -2 3 0 0 Z " fill="#242B37" transform="translate(265,359)"/>
<path d="M0 0 C3.1875 -0.3125 3.1875 -0.3125 7 0 C9.9375 2.5 9.9375 2.5 12 5 C11.01 5.495 11.01 5.495 10 6 C9.01 5.34 8.02 4.68 7 4 C4.9507906 3.54860541 4.9507906 3.54860541 2.8125 3.375 C1.554375 3.25125 0.29625 3.1275 -1 3 C-0.67 2.01 -0.34 1.02 0 0 Z " fill="#1C2430" transform="translate(145,393)"/>
<path d="M0 0 C0.78375 0.04125 1.5675 0.0825 2.375 0.125 C2.375 1.445 2.375 2.765 2.375 4.125 C-0.53100261 5.38164978 -2.42104584 6.125 -5.625 6.125 C-4.86443086 2.32215429 -4.27658992 0.20364714 0 0 Z " fill="#E2E5EA" transform="translate(353.625,361.875)"/>
<path d="M0 0 C0.78375 0.04125 1.5675 0.0825 2.375 0.125 C2.375 1.445 2.375 2.765 2.375 4.125 C-0.53100261 5.38164978 -2.42104584 6.125 -5.625 6.125 C-4.86443086 2.32215429 -4.27658992 0.20364714 0 0 Z " fill="#E2E5EA" transform="translate(180.625,361.875)"/>
<path d="M0 0 C0.598125 0.33 1.19625 0.66 1.8125 1 C4.05386471 2.20787988 4.05386471 2.20787988 7 2 C6.34 3.65 5.68 5.3 5 7 C3.68 6.67 2.36 6.34 1 6 C0.67 4.02 0.34 2.04 0 0 Z " fill="#161E2A" transform="translate(256,370)"/>
<path d="M0 0 C1.31571603 0.2547514 2.62760376 0.52934141 3.9375 0.8125 C4.66839844 0.96332031 5.39929688 1.11414063 6.15234375 1.26953125 C6.76207031 1.51058594 7.37179687 1.75164062 8 2 C8.33 2.99 8.66 3.98 9 5 C3.375 5.25 3.375 5.25 0 3 C0 2.01 0 1.02 0 0 Z " fill="#262D39" transform="translate(352,437)"/>
<path d="M0 0 C3 1 3 1 4 3 C3.071875 3.185625 3.071875 3.185625 2.125 3.375 C-0.19120832 3.87197356 -0.19120832 3.87197356 -2 6 C-2.66 6 -3.32 6 -4 6 C-3.6875 4.125 -3.6875 4.125 -3 2 C-2.01 1.34 -1.02 0.68 0 0 Z " fill="#262E3A" transform="translate(168,408)"/>
<path d="M0 0 C1.2065625 0.0309375 1.2065625 0.0309375 2.4375 0.0625 C2.1075 1.0525 1.7775 2.0425 1.4375 3.0625 C0.4475 3.0625 -0.5425 3.0625 -1.5625 3.0625 C-1.5625 4.0525 -1.5625 5.0425 -1.5625 6.0625 C-2.5525 6.0625 -3.5425 6.0625 -4.5625 6.0625 C-3.48963568 0.08511307 -3.48963568 0.08511307 0 0 Z " fill="#363D48" transform="translate(185.5625,407.9375)"/>
<path d="M0 0 C1.2065625 0.0309375 1.2065625 0.0309375 2.4375 0.0625 C1.4475 0.5575 1.4475 0.5575 0.4375 1.0625 C0.4375 1.7225 0.4375 2.3825 0.4375 3.0625 C-0.9375 4.6875 -0.9375 4.6875 -2.5625 6.0625 C-3.2225 6.0625 -3.8825 6.0625 -4.5625 6.0625 C-3.48963568 0.08511307 -3.48963568 0.08511307 0 0 Z " fill="#272E3A" transform="translate(365.5625,358.9375)"/>
<path d="M0 0 C2.475 0.99 2.475 0.99 5 2 C2.33333333 3.33333333 -0.33333333 4.66666667 -3 6 C-3 3 -3 3 -1.5 1.3125 C-0.7575 0.6628125 -0.7575 0.6628125 0 0 Z " fill="#282F3B" transform="translate(350,359)"/>
<path d="M0 0 C1.2065625 0.0309375 1.2065625 0.0309375 2.4375 0.0625 C1.4475 0.5575 1.4475 0.5575 0.4375 1.0625 C0.4375 1.7225 0.4375 2.3825 0.4375 3.0625 C-0.9375 4.6875 -0.9375 4.6875 -2.5625 6.0625 C-3.2225 6.0625 -3.8825 6.0625 -4.5625 6.0625 C-3.48963568 0.08511307 -3.48963568 0.08511307 0 0 Z " fill="#272E3A" transform="translate(296.5625,358.9375)"/>
<path d="M0 0 C2.475 0.99 2.475 0.99 5 2 C2.33333333 3.33333333 -0.33333333 4.66666667 -3 6 C-3 3 -3 3 -1.5 1.3125 C-0.7575 0.6628125 -0.7575 0.6628125 0 0 Z " fill="#282F3B" transform="translate(177,359)"/>
<path d="M0 0 C2.31 0.33 4.62 0.66 7 1 C7 1.99 7 2.98 7 4 C4.36 3.34 1.72 2.68 -1 2 C-0.67 1.34 -0.34 0.68 0 0 Z " fill="#202733" transform="translate(216,408)"/>
</svg>
